<?xml version="1.0" encoding="UTF-8" standalone="no"?>
<svg width="50px" height="50px" viewBox="0 0 50 50" version="1.1" xmlns="http://www.w3.org/2000/svg" xmlns:xlink="http://www.w3.org/1999/xlink">
    <!-- Generator: Sketch 43.2 (39069) - http://www.bohemiancoding.com/sketch -->
    <title>Artboard</title>
    <desc>Created with Sketch.</desc>
    <defs></defs>
    <g id="Page-1" stroke="none" stroke-width="1" fill="none" fill-rule="evenodd">
        <g id="Artboard" fill="#9EA3A8">
            <path d="M6.38383886,23.6613407 C5.85956682,23.9822032 5.80060755,24.5277316 5.80634833,25.0983953 C5.80805504,25.2686014 5.81177878,25.4388075 5.81953658,25.6087033 C5.8564637,26.4263753 6.43566095,27.1894324 7.22292236,27.3933073 C7.58971108,27.4882628 7.97884225,27.5478427 8.35649189,27.5414813 C10.3850011,27.5073469 12.4135103,27.458628 14.4410885,27.3905145 C15.2586053,27.3630519 15.9633238,26.8190751 16.1493558,26.0248316 C16.276894,25.4808548 16.3260784,24.9007266 16.2981504,24.3423203 C16.2578098,23.5396984 15.7980827,22.9879638 15.0094248,22.789209 C14.5880212,22.6829271 14.141172,22.624123 13.7070456,22.6309499 C11.8771361,22.6601192 10.047692,22.7190785 8.21824792,22.7733831 C7.49056641,22.7949497 6.85318567,23.0234945 6.38383886,23.6613407 M22.6216872,6.23841106 C22.2401586,6.71349864 22.159943,7.23171959 22.1645977,7.73768322 C22.183837,9.82344496 22.2240224,11.9092067 22.2941529,13.9937272 C22.3059448,14.3448452 22.4705653,14.7049622 22.6218423,15.0346686 C23.1450283,16.1761511 25.9656087,16.3229287 26.6689307,15.2922275 C27.0212899,14.7758685 27.1938234,14.2190137 27.184514,13.6128193 C27.1537931,11.6263574 27.1165557,9.63974029 27.0515454,7.65420931 C27.0220657,6.75616654 26.5362724,6.20505252 25.6812078,5.90575665 C24.9373901,5.64556009 24.2072261,5.75556567 23.477993,5.93104707 C23.1849034,6.00164304 22.9067087,6.13414624 22.6216872,6.23841106 M34.3992667,26.2299478 C34.8175673,26.6268368 35.4222101,26.7827686 36.0563325,26.7740798 C38.1684708,26.7455311 40.2802987,26.6958812 42.3918164,26.6378529 C43.0312141,26.6203203 43.5564171,26.313732 43.8673497,25.7646351 C44.4094646,24.8073227 44.4037239,23.7995847 43.8882957,22.8387037 C43.4442393,22.0107915 42.6084141,21.8297244 41.7674687,21.8354652 C39.7827135,21.8488086 37.7984238,21.9221974 35.8138238,21.9643998 C34.8948349,21.9841046 34.1851515,22.3805281 33.9113012,23.2560733 C33.5963346,24.2624149 33.4895873,25.2996326 34.3992667,26.2299478 M23.4671321,33.9171505 C23.0300577,34.528465 22.8401468,35.1534333 22.863265,36.2773831 C22.8997267,38.0492644 22.9625648,39.8205249 22.996544,41.5924061 C23.0136112,42.4789674 23.2776866,43.2502477 24.1177011,43.6316211 C25.070669,44.0640408 26.0825963,44.1230001 27.0138424,43.5616458 C27.7087861,43.1427246 27.9281766,42.4060441 27.920574,41.6451592 C27.8993176,39.5193672 27.8532363,37.3934201 27.7758134,35.2691796 C27.7449374,34.4215626 27.1232274,33.6620741 26.3393794,33.5166929 C25.7628198,33.4096353 25.1516605,33.3862068 24.5692049,33.4493552 C24.1893831,33.4904716 23.8336105,33.7534609 23.4671321,33.9171505 M10.6406981,11.8621944 C10.0247289,12.695382 9.46554678,13.4447854 8.9139673,14.1996192 C8.42538114,14.8681863 8.47642746,15.5788006 8.78487753,16.2959315 C9.0595036,16.9343983 9.6205476,17.253399 10.2259662,17.4786855 C12.1537792,18.1961267 14.0898154,18.8913806 16.0235243,19.5925305 C16.648958,19.8193685 17.2785809,19.7841481 17.8275228,19.4286858 C18.6313859,18.9078272 19.5233776,18.4031048 19.5911807,17.294205 C19.6187985,16.8419254 19.5446339,16.3460469 19.3766,15.9260397 C18.607647,14.0031917 17.809835,12.0910495 16.9803712,10.1933368 C16.4567198,8.99522238 15.3701625,8.64162192 14.1912874,9.2139923 C14.076472,9.26969329 13.9549849,9.31934321 13.8547541,9.3958351 C12.7593529,10.2321258 11.6676755,11.0730712 10.6406981,11.8621944 M31.1450254,18.6431311 C31.9113407,19.3843112 32.8256749,19.4615788 33.7319409,19.1058062 C35.8045144,18.2924786 37.8587795,17.4290356 39.896598,16.5317686 C40.8509624,16.1116062 41.1961844,15.1634481 40.8560826,14.1749494 C40.7417326,13.8430707 40.5898349,13.5147607 40.4010101,13.2191886 C39.5028122,11.8125445 38.265133,10.7231944 36.9987499,9.6685993 C36.3875905,9.15953255 35.7008702,8.76791888 34.9427781,8.49903358 C34.1918232,8.23278593 33.5150329,8.3593932 32.989985,8.92540219 C32.6621405,9.2788475 32.3972892,9.7270931 32.221032,10.1784418 C31.5139863,11.9884914 30.8848288,13.8292619 30.158854,15.6313985 C29.8649886,16.3612522 29.9444285,16.9899442 30.3335596,17.6069995 C30.5662936,17.9761155 30.872106,18.2993054 31.1450254,18.6431311 M18.9849863,30.8421143 C18.215723,30.0767299 17.2778052,30.0148226 16.293806,30.4002301 C15.1312223,30.8554577 13.9850851,31.3533532 12.8366206,31.8438012 C11.9360953,32.2282777 11.0243988,32.5927391 10.1514913,33.0332269 C9.18983462,33.5182445 8.72979716,34.7608887 9.21698692,35.5771642 C10.6155629,37.9206401 12.5866643,39.6981069 14.911056,41.0817878 C15.5903288,41.4861243 16.3533859,41.3612237 16.9215671,40.8039035 C17.2843217,40.448286 17.5960301,39.9862315 17.780976,39.5133161 C18.494228,37.6903886 19.1510032,35.8452738 19.8215873,34.0058997 C20.2777459,32.7547219 20.0146014,31.7536556 18.9849863,30.8421143 M39.2365645,37.9045038 C39.9611429,36.9004895 40.6927033,35.9594686 41.3404795,34.9639878 C41.7773987,34.2924728 41.7023032,33.5269332 41.1780312,32.9438571 C40.8051914,32.5291252 40.2925561,32.1747489 39.7727836,31.9693224 C37.8863972,31.2239531 35.9683591,30.5586443 34.0669227,29.8508228 C33.2027039,29.5290293 32.4241312,29.6609118 31.7063797,30.2218007 C31.1813319,30.6321882 30.7425508,31.1137924 30.5743617,31.7756878 C30.4309976,32.3393694 30.4286703,32.8856736 30.6775404,33.4541651 C31.5538614,35.4553668 32.38317,37.4772043 33.2422687,39.4860087 C33.3407927,39.7162601 33.4891218,39.9378229 33.6588624,40.1227688 C34.3452725,40.8706206 35.4895478,40.9405959 36.4434467,40.2178794 C37.4125509,39.4835262 38.3205236,38.668647 39.2365645,37.9045038 M21.0539912,28.866203 C23.4016563,31.0425758 27.1042984,30.8961085 29.2840846,28.5406857 C31.4587508,26.1906934 31.3122835,22.597281 28.9523612,20.4016689 C26.6301417,18.2409668 22.9274996,18.3916232 20.7565572,20.7354094 C18.5612554,23.1054168 18.6918967,26.6766419 21.0539912,28.866203 M35.2076294,2.79643096 C35.7030424,2.22669823 35.7030424,2.22669823 36.3801431,2.54616438 C37.2010733,2.93358884 37.2010733,2.93358884 36.9874235,3.83628629 C36.6957303,5.06884533 37.2710486,6.16253979 38.3917402,6.46152535 C39.1374198,6.6604353 39.7873682,6.3979114 40.3882873,5.97169794 C40.9656227,5.56239648 40.9654675,5.56193102 41.5158057,6.01638286 C42.250159,6.6227324 42.2465904,6.62087053 41.8152568,7.43838735 C41.3805097,8.26257588 41.3612704,9.08179941 41.9522595,9.83508166 C42.5432486,10.5886742 43.3539386,10.6761822 44.2262254,10.4701351 C44.4181534,10.4248295 44.6124086,10.3602846 44.7844766,10.2662601 C45.1314054,10.0766595 45.3613465,10.1742526 45.5520332,10.4977528 C45.703,10.7540705 45.8727406,11.0010788 46.0527215,11.238002 C46.2303751,11.471822 46.1810355,11.6452864 45.9644378,11.8133203 C45.830383,11.91743 45.7017587,12.0316248 45.5853918,12.1552841 C44.9779561,12.8005778 44.766944,13.5487399 45.0921509,14.3887543 C45.4148753,15.2219419 46.0865455,15.5992812 46.9481267,15.6523445 C47.2573525,15.6714287 47.5777496,15.6596369 47.8798383,15.5972642 C48.1881332,15.5336502 48.3352211,15.6376047 48.4120233,15.9148684 C48.4307971,15.9829819 48.4655521,16.0464407 48.4872739,16.1137784 C48.5955728,16.4500014 48.8422708,16.8237721 48.7663995,17.1123622 C48.7016995,17.3575087 48.2638493,17.5036656 47.9923264,17.6954384 C47.2840393,18.1959716 46.9113547,18.8691933 47.0514605,19.7417905 C47.1914112,20.6129913 47.7471799,21.1484346 48.5851773,21.3833407 C48.870354,21.463246 49.1684086,21.5138269 49.4638256,21.5360142 C49.7479162,21.5571154 49.8726616,21.6865155 49.8816606,21.9583487 C49.883988,22.0289447 49.9047789,22.0986097 49.9094336,22.1692057 C49.9325518,22.522651 50.0836737,22.9516573 49.9361204,23.2076646 C49.8017553,23.4403986 49.3442003,23.4917552 49.0248894,23.6120011 C48.1923224,23.9255713 47.6661885,24.4987175 47.6076947,25.4017252 C47.5495112,26.2980613 47.9937228,26.9458375 48.7544525,27.3836876 C48.9622063,27.5033129 49.1850103,27.6134736 49.4152618,27.6736741 C49.7724308,27.767078 49.8200637,27.9751422 49.7857742,28.3064002 C49.6618046,29.5080832 49.6725104,29.5093245 48.4968936,29.6289497 C47.6171592,29.7184747 46.9197331,30.2858801 46.6994116,31.0911396 C46.4797108,31.8939166 46.8277256,32.8080956 47.5718537,33.3832588 C48.3215673,33.9627663 48.3215673,33.9627663 47.9524513,34.8400182 C47.9470208,34.8530513 47.9436074,34.8670154 47.9380218,34.8800485 C47.6508281,35.5481501 47.6509832,35.5473743 46.9352487,35.379961 C46.3385188,35.2404758 45.7447369,35.2268221 45.1953296,35.5346515 C44.2415859,36.0690087 43.9097072,37.206302 44.425756,38.1854913 C44.5892904,38.4959584 44.7916138,38.7974265 45.028537,39.0548302 C45.2530477,39.2988906 45.292147,39.5013691 45.0803591,39.751946 C45.0438974,39.7952345 45.0144178,39.844419 44.9787319,39.8884833 C44.7473943,40.1749012 44.5633794,40.6017353 44.2682727,40.7025866 C44.0240572,40.7859054 43.6467179,40.4880059 43.3312858,40.3523996 C42.5159411,40.0020574 41.5701103,40.1322333 41.0217891,40.6752792 C40.2995381,41.3903931 40.2894529,42.2263734 40.6115567,43.1166584 C40.6501906,43.2232506 40.6984441,43.3265845 40.7476285,43.4288322 C41.0301676,44.0165631 41.0307882,44.0164079 40.5418917,44.4288125 C40.5201699,44.4471209 40.4987583,44.4657396 40.4767262,44.4835825 C39.7146001,45.1040513 39.7146001,45.1040513 38.9444058,44.4941331 C37.8635893,43.6382928 36.5314201,43.7631934 35.846872,44.7968424 C35.4226755,45.4374815 35.418176,46.1493371 35.6388078,46.8458322 C35.7823271,47.2981119 35.626085,47.5010559 35.2346265,47.6437994 C34.8884735,47.7699412 34.5187368,48.0676855 34.2163379,48.0068644 C33.9454355,47.9525598 33.7544385,47.5103653 33.5237216,47.2431867 C32.9432831,46.5712062 32.22398,46.2194676 31.333695,46.4275317 C30.4430998,46.635751 29.9971815,47.2874061 29.8353538,48.1475908 C29.7805838,48.438198 29.8123907,48.7452516 29.754983,49.035083 C29.7293823,49.1638625 29.5992064,49.3408954 29.4840807,49.3708405 C29.0736931,49.4772775 28.6512034,49.5515972 28.229024,49.5875934 C28.1219664,49.5967476 27.953467,49.4417468 27.8923356,49.3219664 C27.7322146,49.0080859 27.651068,48.6513823 27.474966,48.348673 C27.0610099,47.6372828 26.4109063,47.3054042 25.5933895,47.3249539 C24.7968188,47.3440381 24.28077,47.8118333 23.9195669,48.4658157 C23.7707723,48.7351665 23.6674384,49.0397377 23.5991698,49.3408954 C23.5270223,49.6584997 23.3524718,49.7567134 23.0567445,49.7312678 C22.7175736,49.7020985 22.3780923,49.6701364 22.0379904,49.656793 C21.7492451,49.6454666 21.6901307,49.4972926 21.6412566,49.2288728 C21.5436635,48.6935847 21.4739984,48.1097328 21.2052683,47.6574531 C20.5294089,46.5200047 19.0732701,46.3923113 18.1468338,47.3365906 C17.892378,47.5960114 17.6830726,47.9128398 17.5085221,48.2335472 C17.353211,48.5187239 17.1750919,48.5789244 16.8911565,48.4701601 C16.573397,48.3483627 16.2536206,48.229358 15.9279482,48.1319201 C15.6454092,48.0473601 15.6350137,47.8804122 15.6492881,47.6154058 C15.6787677,47.0720496 15.7544838,46.4919215 15.6078614,45.9858027 C15.2191957,44.6446344 13.6601885,44.1897171 12.543531,45.0334553 C12.3404318,45.1870597 12.1329883,45.3491977 11.9758153,45.5459355 C11.718877,45.867729 11.4597665,45.8955019 11.1489891,45.6475626 C11.1159409,45.621031 11.0771519,45.6019468 11.0423969,45.577277 C10.7538068,45.3720056 10.3319377,45.2210389 10.2182084,44.9437752 C10.123253,44.7121273 10.3834495,44.3305988 10.4956273,44.0187352 C10.8177311,43.1217786 10.603771,42.1626043 9.9504092,41.5976814 C9.31240784,41.0459468 8.42615692,40.9883839 7.5593005,41.4426806 C6.69135799,41.8974428 6.69104768,41.8975979 6.02341153,41.1512977 C5.95715993,41.0772883 5.90347596,40.9908664 5.83163875,40.9233736 C5.57563139,40.6825715 5.58307888,40.4796275 5.8303975,40.2088803 C6.28965918,39.7060198 6.59593707,39.1234092 6.57406008,38.4073643 C6.54054639,37.3152214 5.72225379,36.5022041 4.63383464,36.5127548 C4.38030978,36.5152373 4.12181993,36.5433205 3.87512193,36.6004179 C3.02005737,36.7983969 3.02160893,36.8052238 2.61416934,36.0081875 C2.59477485,35.9703295 2.57522519,35.9324714 2.55598585,35.8944582 C2.2234866,35.2336489 2.2220902,35.2316319 2.80951071,34.7967297 C3.28258127,34.4465427 3.61864911,33.9967455 3.76278901,33.426237 C4.0613091,32.2439485 3.29158032,31.1587876 2.06274502,31.0160441 C1.8661624,30.9932362 1.66601119,30.9957187 1.46756671,30.9955635 C0.764089526,30.9949429 0.764089526,30.9964945 0.586280781,30.2959652 C0.337720913,29.315845 0.337720913,29.315845 1.22816104,28.872254 C2.56963958,28.2039973 2.98840555,26.6116315 2.00425122,25.6228225 C1.64304811,25.2600678 1.05935134,25.071243 0.542681953,24.9257067 C0.136638772,24.8115119 -0.0433421561,24.657442 0.00879025069,24.2472096 C0.0140655538,24.2051624 0.0101866544,24.162029 0.012979462,24.1195163 C0.035477078,23.766071 -0.0573061937,23.3300827 0.117554588,23.0847811 C0.262780578,22.8809062 0.722352569,22.8989042 1.04368059,22.8225675 C1.97120299,22.6020909 2.66102645,21.8944245 2.77630734,21.0423079 C2.88770932,20.2176539 2.47468412,19.4784908 1.62644642,18.9854051 C0.816532244,18.5146619 0.816532244,18.5146619 1.08293505,17.601569 C1.090848,17.5742616 1.09658878,17.5464887 1.10465689,17.5191812 C1.30806637,16.8354088 1.30806637,16.8349434 2.00813011,16.8985573 C2.64907944,16.956896 3.25837694,16.879318 3.78094226,16.4641206 C4.79597263,15.6579302 4.81009182,14.339725 3.81833485,13.343003 C3.17567881,12.6970887 3.17567881,12.6970887 3.64393953,11.8991216 C3.66535106,11.8623496 3.68753836,11.8260431 3.70972567,11.7897366 C4.06006785,11.2153492 4.05836114,11.2203142 4.68131237,11.4322572 C4.8951173,11.5048702 5.11668003,11.5708115 5.33979432,11.5965674 C6.19066967,11.6947811 6.93433225,11.4792695 7.41298842,10.7230393 C7.95308636,9.8698366 7.75231453,9.0360284 7.24154107,8.24504325 C6.87304564,7.67437958 6.86202956,7.67701724 7.34130636,7.20317089 C7.57295423,6.97431583 7.79218962,6.6241288 8.06200586,6.57494436 C8.30513527,6.5304146 8.61405081,6.8137294 8.88634954,6.96624772 C10.4178941,7.82441541 12.1331434,6.95445587 12.0896998,5.31880161 C12.078994,4.91617186 11.9620064,4.50516369 11.8288826,4.12068719 C11.7347029,3.84900908 11.7821806,3.69012936 12.009329,3.5546782 C12.3258471,3.36600853 12.6491922,3.18757917 12.9577974,2.98665218 C13.1716023,2.84763243 13.3213279,2.88936939 13.45771,3.08719325 C13.5219445,3.18044199 13.5967297,3.26686387 13.6708943,3.35266512 C14.3624244,4.15311478 15.3852126,4.44372192 16.236088,4.08267397 C17.0418129,3.74055505 17.5167454,2.82932403 17.4331163,1.78543464 C17.3777256,1.09374931 17.3777256,1.09374931 18.0248812,0.884443908 C18.0518783,0.875755173 18.0785651,0.865980347 18.1057174,0.857601924 C18.9764528,0.586699596 18.974746,0.587785688 19.4329216,1.36573773 C19.7464918,1.89792272 20.1717744,2.30334528 20.7799858,2.47246529 C21.9588609,2.79999955 22.9628752,2.17115239 23.3167859,0.897942477 C23.4050697,0.580648513 23.4146894,0.159865515 23.625236,-0.0185638532 C23.8312831,-0.193114322 24.2477218,-0.120035859 24.5719978,-0.153859861 C25.2522015,-0.224766141 25.2529773,-0.224455829 25.3795846,0.468005277 C25.4822978,1.03029052 25.7145663,1.52554839 26.1606398,1.89419898 C27.2051498,2.75748681 28.5529897,2.47991277 29.2752408,1.2608523 C29.3185293,1.18777383 29.356077,1.11112678 29.3947109,1.03525551 C29.7706538,0.295161524 29.7704986,0.295006368 30.5996521,0.464126378 C30.6413891,0.472659956 30.683126,0.481193535 30.7247078,0.490347737 C31.4302021,0.645969178 31.4302021,0.645969178 31.4103421,1.37752959 C31.3703119,2.84732212 32.3868938,3.90021055 33.6808946,3.72922867 C34.2265782,3.65708114 34.7233876,3.35359606 35.2076294,2.79643096" id="Fill-1"></path>
        </g>
    </g>
</svg>